<svg data-testid="desktop" fill="#ff8000" height="46" viewBox="0 0 120 44" xmlns="http://www.w3.org/2000/svg" class="sc-efccdcc4-1 kbEzx"><path clip-rule="evenodd" d="M1.52541 33.4335C1.52507 33.4331 1.5248 33.4327 2.05558 33.0506C2.58636 32.6686 2.5862 32.6683 2.5861 32.6682L2.58617 32.6683L2.58735 32.6699C2.58859 32.6716 2.59074 32.6746 2.59379 32.6787C2.5999 32.6871 2.60962 32.7002 2.62292 32.718C2.64952 32.7535 2.69042 32.8074 2.74531 32.8776C2.85512 33.0181 3.02081 33.2241 3.23996 33.4795C3.67849 33.9907 4.32969 34.6986 5.17408 35.4772C6.86638 37.0377 9.31491 38.8641 12.3644 39.9738C15.4034 41.0798 19.0468 41.4777 23.1658 40.1805C27.2932 38.8808 31.951 35.8622 36.9772 30.041L37.9672 30.8958C32.8292 36.8464 27.9778 40.0365 23.5587 41.4281C19.1313 42.8224 15.1911 42.3944 11.9171 41.2029C8.65342 40.0153 6.05938 38.0727 4.28739 36.4388C3.39963 35.6201 2.71325 34.8743 2.24724 34.3312C2.01412 34.0594 1.8358 33.838 1.71466 33.6829C1.65409 33.6054 1.60778 33.5445 1.57604 33.5021C1.56018 33.4809 1.54795 33.4644 1.53939 33.4527C1.53512 33.4469 1.53176 33.4423 1.52932 33.4389L1.52637 33.4349L1.52541 33.4335Z" fill="#5B3D5B" fill-rule="evenodd"/><path clip-rule="evenodd" d="M33.6686 39.8069C38.6726 41.929 51.0092 45.3162 62.4556 33.6226L63.3903 34.5375C51.3944 46.7924 38.3817 43.2264 33.1581 41.0111C31.7228 40.4048 30.4268 39.5334 29.3038 38.4812L29.296 38.4739L29.2632 38.4411L30.1881 37.5162L30.2058 37.5339C31.2242 38.4866 32.3893 39.2666 33.6677 39.8065L33.6686 39.8069Z" fill="#5B3D5B" fill-rule="evenodd"/><path d="M62.0537 2.04723C62.1971 1.57467 61.9271 1.08524 61.4461 0.941781C61.3617 0.916465 61.2689 0.908027 61.1845 0.908027H53.4379L43.9361 32.4936L40.3244 17.1523L51.3705 2.35946C51.4464 2.26663 51.5055 2.15693 51.5308 2.03879L51.7249 1.38902C51.7839 1.1865 51.6658 0.975536 51.4633 0.916466C51.4295 0.908027 51.3958 0.899588 51.3536 0.899588H43.4804L35.0334 13.0342L38.6367 2.03879C38.7211 1.76876 38.662 1.48185 38.4932 1.25401C38.316 1.03461 38.0544 0.899588 37.7675 0.899588H29.9703L23.2279 23.3546C23.3797 19.5151 20.325 16.4603 18.5529 14.5363C17.1183 12.9667 16.2492 11.8528 16.4011 10.6208C16.6289 8.91622 18.0635 7.61668 19.8102 7.54074C21.7511 7.38884 22.5865 7.9711 23.8186 8.53648C23.962 8.60399 24.1139 8.63775 24.2742 8.64619C24.4008 8.64619 24.5274 8.62087 24.6455 8.57868C24.9156 8.48585 25.1181 8.27489 25.2025 8.00486L27.0168 1.9966L25.7594 1.42278L25.5738 1.33839L25.5147 1.31308C24.0211 0.688625 22.4178 0.384837 20.7975 0.410152C13.9623 0.410152 7.75153 5.20325 6.73047 11.0934C6.01319 15.2114 8.71353 18.1311 10.6797 20.2576L10.8485 20.4433C12.2746 21.9369 13.2535 23.1014 13.0256 24.4516C12.705 26.3418 10.8316 27.422 9.02576 27.5654C7.04269 27.7258 5.80223 27.1773 4.24953 26.5106C3.9795 26.3587 3.65883 26.2997 3.35504 26.3503C3.05125 26.4347 2.81497 26.6709 2.72215 26.9663L0.992245 32.772L0.764404 33.5062C0.764404 33.5062 4.16514 35.1939 8.09751 35.1939C13.9201 35.1939 18.9495 32.9999 21.9368 27.7089L20.1731 33.599C20.0296 34.0716 20.3081 34.5694 20.7891 34.7045C20.8735 34.7298 20.9579 34.7382 21.0423 34.7382H28.8395L30.7972 28.249L33.1685 24.8989L34.9996 34.0209C35.084 34.4344 35.4553 34.7382 35.8941 34.7382H52.2734L62.0706 2.03879H62.0621L62.0537 2.04723Z" fill="#FF8000"/><path d="M82.8969 3.46483C81.3696 1.81931 79.2008 0.891064 76.9309 0.907941H64.0283L63.4714 2.69692C63.4207 2.86569 63.4461 3.0429 63.5389 3.18635L63.9017 3.75174C64.2646 4.30868 64.3574 4.98376 64.1633 5.61666L55.7923 33.5989C55.7079 33.869 55.7585 34.1559 55.9273 34.3837C56.0961 34.6116 56.3577 34.7466 56.6446 34.755H64.1465L66.4924 26.9831H69.8762C78.0532 27.0844 82.1965 21.4558 84.0361 15.3463C84.7956 12.8485 85.1585 11.0511 85.1416 9.85281C85.1163 7.17779 84.4496 5.16097 82.8885 3.47326M79.4034 13.6924L80.0616 14.0974L75.2179 16.9412L75.2347 18.0973H72.3487L71.4121 21.2196H69.8172L70.9226 18.0973H67.294L68.4923 16.6037L65.8257 13.3126L66.6612 13.0342C66.8721 12.9582 67.024 12.7557 67.024 12.5363L67.0409 10.4773L68.7792 11.0173C68.9649 11.0764 69.1843 11.0089 69.3109 10.8401L70.0113 9.96252L71.0661 11.7937C71.1758 11.9878 71.4711 11.9118 71.5133 11.684L72.2137 7.51533L73.1504 8.30856C73.2685 8.40982 73.4542 8.39294 73.5639 8.26637L75.7326 5.8445L76.0448 8.33387C76.0617 8.50265 76.2389 8.59547 76.3908 8.52796L77.9013 7.89507L75.7073 11.9625C75.6229 12.1143 75.8001 12.2662 75.9351 12.1565L78.3148 10.4098L78.357 11.3127C78.357 11.4393 78.4667 11.5237 78.5933 11.5152L80.8042 11.3211L79.3359 13.3548C79.2515 13.473 79.2768 13.6417 79.3949 13.7092" fill="#FF8000"/><path d="M51.7587 40.7042L52.0372 40.5523L52.3156 40.4004C51.6406 39.1599 52.265 38.9405 51.7249 37.9363C51.3115 37.1853 50.4845 37.1347 49.6575 36.0967C49.6406 36.0799 49.6237 36.0799 49.6069 36.0883C49.59 36.0967 49.5815 36.1136 49.59 36.1389C50.0119 37.3963 49.5984 38.1136 50.0119 38.873C50.5604 39.8772 51.0836 39.4722 51.7587 40.7126V40.7042Z" fill="#F6C243"/><path d="M51.8094 41.0923L52.6111 40.6535L52.2651 39.8181C51.9866 39.97 51.8685 40.24 51.8685 40.24C51.8685 40.24 51.5816 40.1894 51.2947 40.3413L51.8094 41.0923Z" fill="#113F08"/><path d="M23.633 39.8772L23.8862 39.6747L24.1393 39.4722C23.2617 38.3667 23.8355 38.0376 23.1267 37.1516C22.5951 36.4765 21.7681 36.5778 20.7723 35.7002C20.7555 35.6833 20.7302 35.6833 20.7217 35.7002C20.7133 35.717 20.6964 35.7339 20.7133 35.7508C21.3462 36.9153 21.0677 37.6917 21.5993 38.3667C22.3082 39.2612 22.7554 38.7718 23.633 39.8772Z" fill="#F2A6B0"/><path d="M23.7511 40.257L24.4683 39.6832L23.9789 38.9153C23.7257 39.1178 23.6582 39.3963 23.6582 39.3963C23.6582 39.3963 23.3629 39.3963 23.1182 39.5988L23.7511 40.2486V40.257Z" fill="#113F08"/><path d="M31.523 40.0882L31.2446 39.9279L30.9661 39.7676C30.2572 40.9912 29.7425 40.5692 29.1687 41.5481C28.7383 42.2907 29.1265 43.0164 28.6624 44.2653C28.6624 44.2906 28.6624 44.3075 28.6792 44.316C28.6961 44.3244 28.713 44.3244 28.7299 44.3075C29.5906 43.2949 30.4176 43.278 30.8479 42.5354C31.4218 41.5481 30.8057 41.3118 31.5146 40.0882H31.523Z" fill="#F6C243"/><path d="M31.8267 39.8435L31.0335 39.3794L30.4934 40.1135C30.7719 40.2739 31.0588 40.2317 31.0588 40.2317C31.0588 40.2317 31.1685 40.5017 31.447 40.6621L31.8183 39.8351L31.8267 39.8435Z" fill="#5B3D5B"/><path d="M59.8596 37.6832L59.5896 37.852L59.3196 38.0208C60.0791 39.2106 59.4715 39.4722 60.0875 40.4342C60.5516 41.1599 61.3786 41.1431 62.2731 42.1219C62.29 42.1388 62.3068 42.1388 62.3237 42.1219C62.3406 42.1051 62.349 42.0966 62.3406 42.0713C61.8258 40.8477 62.1887 40.1051 61.7246 39.3794C61.1086 38.4174 60.6107 38.8562 59.8512 37.6748L59.8596 37.6832Z" fill="#C1DADE"/><path d="M59.7752 37.2952L59.0073 37.7846L59.4124 38.5947C59.6824 38.4259 59.7752 38.1475 59.7752 38.1475C59.7752 38.1475 60.0706 38.1728 60.3406 38.004L59.7752 37.2952Z" fill="#113F08"/><path d="M37.7506 40.9692L38.0375 41.1042L38.3244 41.2392C38.9151 39.9566 39.4637 40.3194 39.9362 39.2815C40.2906 38.4967 39.8349 37.8132 40.1725 36.5305C40.1725 36.5052 40.1725 36.4883 40.1472 36.4799C40.1219 36.4714 40.1134 36.4799 40.0965 36.4968C39.3455 37.5938 38.5185 37.695 38.1641 38.4714C37.6916 39.5093 38.3244 39.6865 37.7422 40.9692H37.7506Z" fill="#C1DADE"/><path d="M37.4722 41.2476L38.3076 41.6273L38.7717 40.8425C38.4848 40.7075 38.1979 40.775 38.1979 40.775C38.1979 40.775 38.0629 40.5134 37.776 40.3784L37.4806 41.2392L37.4722 41.2476Z" fill="#113F08"/><path d="M10.6377 39.1515L10.8655 39.3709L11.0934 39.5903C12.0807 38.5777 12.4773 39.1093 13.2705 38.2992C13.8697 37.6832 13.6671 36.8815 14.4182 35.7845C14.435 35.7676 14.4182 35.7423 14.4182 35.7339C14.4182 35.7254 14.3844 35.717 14.3675 35.7339C13.2874 36.5102 12.4857 36.3246 11.8782 36.9406C11.0849 37.7591 11.625 38.1389 10.6377 39.1515Z" fill="#F6C243"/><path d="M10.2832 39.3202L10.9414 39.9615L11.6418 39.3792C11.414 39.1514 11.1186 39.1261 11.1186 39.1261C11.1186 39.1261 11.0764 38.8392 10.8486 38.6113L10.2832 39.3202Z" fill="#113F08"/><path d="M47.0078 43.3118L46.6871 43.3286L46.3664 43.3455C46.434 44.7548 45.7757 44.6873 45.8348 45.8265C45.877 46.6872 46.6027 47.0838 46.8981 48.3749C46.8981 48.4002 46.9234 48.4087 46.9403 48.4087C46.9571 48.4087 46.974 48.3918 46.9825 48.3749C47.1512 47.0585 47.8348 46.5944 47.7926 45.7336C47.7335 44.5944 47.0837 44.7294 47.0162 43.3202L47.0078 43.3118Z" fill="#F2A6B0"/><path d="M47.1258 42.932L46.2144 42.9742L46.1638 43.8856C46.4845 43.8687 46.7039 43.6746 46.7039 43.6746C46.7039 43.6746 46.9402 43.8434 47.2608 43.8265L47.1258 42.9236V42.932Z" fill="#113F08"/><path d="M4.82346 36.9406L4.56186 36.755L4.30027 36.5693C3.49017 37.7254 3.00917 37.2613 2.3594 38.198C1.86996 38.8984 2.19063 39.6579 1.63368 40.8646C1.62524 40.8814 1.63368 40.9068 1.65056 40.9152C1.66744 40.9236 1.68431 40.9236 1.70119 40.9152C2.63787 39.9785 3.46485 40.0291 3.96272 39.3203C4.62093 38.3836 4.02179 38.0967 4.8319 36.9406H4.82346Z" fill="#F2A6B0"/><path d="M5.14411 36.7129L4.39308 36.1897L3.79395 36.8732C4.05554 37.0589 4.35089 37.042 4.35089 37.042C4.35089 37.042 4.43528 37.3205 4.69687 37.5061L5.14411 36.7129Z" fill="#113F08"/><path d="M18.0634 41.9868L17.7428 42.0037L17.4221 42.0206C17.4896 43.4298 16.8314 43.3623 16.8905 44.5015C16.9327 45.3622 17.6584 45.7589 17.9537 47.05C17.9537 47.0753 17.979 47.0837 17.9959 47.0837C18.0128 47.0837 18.0297 47.0668 18.0381 47.05C18.2069 45.7335 18.8904 45.2694 18.8482 44.4087C18.7892 43.2695 18.1394 43.4045 18.0719 41.9953L18.0634 41.9868Z" fill="#C1DADE"/><path d="M18.1815 41.6071L17.2701 41.6493L17.2195 42.5606C17.5401 42.5437 17.7595 42.3497 17.7595 42.3497C17.7595 42.3497 17.9958 42.5184 18.3165 42.5016L18.1815 41.5986V41.6071Z" fill="#113F08"/></svg>